<?xml version="1.0" encoding="utf-8"?>
<!-- Generator: Adobe Illustrator 16.0.0, SVG Export Plug-In . SVG Version: 6.00 Build 0)  -->
<!DOCTYPE svg PUBLIC "-//W3C//DTD SVG 1.1//EN" "http://www.w3.org/Graphics/SVG/1.1/DTD/svg11.dtd">
<svg version="1.1" id="Layer_1" xmlns="http://www.w3.org/2000/svg" xmlns:xlink="http://www.w3.org/1999/xlink" x="0px" y="0px"
	 width="240px" height="24px" viewBox="0 0 240 24" style="enable-background:new 0 0 240 24;" xml:space="preserve">
<style type="text/css">
<![CDATA[
	.st0{fill:#B6B3AA;}
	.st1{clip-path:url(#SVGID_2_);fill-rule:evenodd;clip-rule:evenodd;fill:#B6B3AA;}
	.st2{font-family:'MicrosoftYaHei';}
	.st3{font-size:14;}
]]>
</style>
<g>
	<defs>
		<rect id="SVGID_1_" width="240" height="24"/>
	</defs>
	<clipPath id="SVGID_2_">
		<use xlink:href="#SVGID_1_"  style="overflow:visible;"/>
	</clipPath>
	<path class="st1" d="M10,1c0-1-1-1-1-1H8c0,0,0,2.1,0,5C6.6,5,5.3,5,5,5C4,5,4,6,4,6v1h4c0,1.9,0,4,0,6H5c-1,0-1,1-1,1v1h4
		c0,3.1,0,5.6,0,6c0,1-1,1-1,1v2c2,0,3-1,3-2v-7h3v-2h-3V7h3V5c0,0-1.4,0-3,0V1z M27,2c0,0,0-1-1-1H16v2h11V2z M54,2c0,0,0-1-1-1
		c-1.1,0-4,0-4,0v2h5V2z M36,24c0,0,0.1,0,0.1,0C36.1,24,36.1,24,36,24 M27,5H16c-0.8,0-1,1-1,1v17c0,0.8,1,1,1,1h8c2.3,0,4-0.9,4-4
		V6C28,5,27,5,27,5 M26,20c0,2-2,2-2,2h-7v-7h9V20z M26,13h-9V7h9V13z M47,3c0-2,0,0,0-2c0-1-1-1-1-1h-1v3c0,0,0,0.8,0,2
		c-2,0-4.1,0-6,0V3h4V1H32c-1,0-1,1-1,1v1h6v2c-2.7,0-4.7,0-5,0c-1,0-1,1-1,1v1h6v6h-5c-0.9,0-1,1-1,1v1h6v6c0,0-0.1,1-1,1v2
		c0,0,3,0,3-3v-6h4v-2h-4V7h6.1c0.1,2.8,0.3,6.5,0.9,8.7c0.1,0.6,0.4,1.1,0.6,1.7C44.8,18.8,43,20,43,20l1,2c0,0,1.9-1.2,3.7-2.8
		c2.2,2.9,5.6,4.8,6.3,4.8c1,0,1-1,1-1s0-4,0-5c0-1-1-1-1-1h-1v4c0,0-2.2-0.9-3.7-3.2c0.3-0.3,0.5-0.5,0.7-0.8c1.8-2.2,4-5,4-5l-2-1
		c0,0-1.8,2.7-3.8,4.8c-0.1-0.2-0.2-0.5-0.2-0.8c-0.7-2.5-0.9-5.4-1-8h8V5c0,0-3.6,0-8,0C47,4.3,47,3.6,47,3 M36.1,24
		C36.3,24,36.2,24,36.1,24 M59,22c-1,0-1,0-1,1s0,1,1,1s1,0,1-1S60,22,59,22"/>
	<rect x="72" class="st1" width="1" height="24"/>
</g>
<text transform="matrix(1 0 0 1 84 17)" class="st0 st2 st3">最具格调的人像摄影平台</text>
</svg>
