<?xml version="1.0" encoding="utf-8"?>
<!-- Generator: Adobe Illustrator 16.0.0, SVG Export Plug-In . SVG Version: 6.00 Build 0)  -->
<!DOCTYPE svg PUBLIC "-//W3C//DTD SVG 1.1//EN" "http://www.w3.org/Graphics/SVG/1.1/DTD/svg11.dtd">
<svg version="1.1" id="Layer_1" xmlns="http://www.w3.org/2000/svg" xmlns:xlink="http://www.w3.org/1999/xlink" x="0px" y="0px"
	 width="115px" height="50px" viewBox="0 0 115 50" style="enable-background:new 0 0 115 50;" xml:space="preserve">
<style type="text/css">
<![CDATA[
	.st0{clip-path:url(#SVGID_2_);fill-rule:evenodd;clip-rule:evenodd;fill:#FFFFFF;}
]]>
</style>
<g>
	<defs>
		<rect id="SVGID_1_" width="115" height="50"/>
	</defs>
	<clipPath id="SVGID_2_">
		<use xlink:href="#SVGID_1_"  style="overflow:visible;"/>
	</clipPath>
	<path class="st0" d="M13,4c0-2-2-2-2-2H9c0,0,0,4.2,0,10c-2.9,0-5.4,0-6,0c-2,0-2,2-2,2v2h8c0,3.8,0,8,0,12H3c-2,0-2,2-2,2v2h8
		c0,6.2,0,11.2,0,12c0,2-2,2-2,2v4c4,0,6-2,6-4V32h6v-4h-6V16h6v-4c0,0-2.8,0-6,0V4z M7,50L7,50C7,50,7,50,7,50L7,50z M101,6
		c0,0,0-2-2-2c-2.2,0-8,0-8,0l0,4h10V6z M47,6c0,0,0-2-2-2H25l0,4h22V6z M87,8c0-4,0,0,0-4c0-2-2-2-2-2h-2v6c0,0,0,1.6,0,4
		c-4.1,0-8.2,0-12,0V8h8V4H57c-2,0-2,2-2,2v2h12v4c-5.4,0-9.4,0-10,0c-2,0-2,2-2,2v2h12v12H57c-1.8,0-2,2-2,2v2h12v12c0,0-0.2,2-2,2
		v4c0,0,6-0.1,6-6V32h8v-4h-8V16h12.1c0.2,5.6,0.6,12.9,1.7,17.3c0.3,1.2,0.7,2.3,1.2,3.3C82.6,39.6,79,42,79,42l2,4
		c0,0,3.7-2.4,7.4-5.5C92.9,46.3,99.5,50,101,50c2,0,2-2,2-2s0-7.9,0-10c0-2-2-2-2-2h-2v8c0,0-4.3-1.9-7.4-6.4c0.5-0.5,1-1,1.4-1.6
		c3.7-4.4,8-10,8-10l-4-2c0,0-3.7,5.5-7.5,9.5c-0.2-0.5-0.3-1-0.5-1.5c-1.3-5-1.8-10.9-1.9-16H103v-4c0,0-7.2,0-16,0
		C87,10.5,87,9.2,87,8 M65,50c0,0,0.1,0,0.1,0C65.1,50,65.1,50,65,50 M65.3,50C65.5,50,65.6,50,65.3,50 M47,12H25c-1.6,0-2,2-2,2v34
		c0,1.6,2,2,2,2h16c4.5,0,8-1.8,8-8V14C49,12,47,12,47,12 M45,42c0,4-4,4-4,4H27V32h18V42z M45,28H27V16h18V28z M111,46
		c-2,0-2,0-2,2c0,2,0,2,2,2s2,0,2-2S113,46,111,46"/>
</g>
</svg>
