<?xml version="1.0" encoding="utf-8"?>
<!-- Generator: Adobe Illustrator 16.0.0, SVG Export Plug-In . SVG Version: 6.00 Build 0)  -->
<!DOCTYPE svg PUBLIC "-//W3C//DTD SVG 1.1//EN" "http://www.w3.org/Graphics/SVG/1.1/DTD/svg11.dtd">
<svg version="1.1" id="Layer_1" xmlns="http://www.w3.org/2000/svg" xmlns:xlink="http://www.w3.org/1999/xlink" x="0px" y="0px"
	 width="300px" height="300px" viewBox="0 0 300 300" style="enable-background:new 0 0 300 300;" xml:space="preserve">
<style type="text/css">
<![CDATA[
	.st0{opacity:0.5;clip-path:url(#SVGID_4_);}
	.st1{clip-path:url(#SVGID_2_);}
	.st2{clip-path:url(#SVGID_6_);}
	.st3{clip-path:url(#SVGID_10_);fill:#FFFFFF;}
	.st4{opacity:0.5;clip-path:url(#SVGID_10_);}
	.st5{clip-path:url(#SVGID_2_);fill:#FFFFFF;}
	.st6{clip-path:url(#SVGID_10_);fill:#DD2222;}
	.st7{clip-path:url(#SVGID_12_);}
	.st8{clip-path:url(#SVGID_16_);}
	.st9{clip-path:url(#SVGID_20_);}
	.st10{clip-path:url(#SVGID_24_);}
	.st11{clip-path:url(#SVGID_10_);fill:#414141;}
]]>
</style>
<g>
	<defs>
		<rect id="SVGID_1_" width="300" height="300"/>
	</defs>
	<clipPath id="SVGID_2_">
		<use xlink:href="#SVGID_1_"  style="overflow:visible;"/>
	</clipPath>
	<g class="st1">
		<defs>
			<rect id="SVGID_3_" width="300" height="300"/>
		</defs>
		<clipPath id="SVGID_4_">
			<use xlink:href="#SVGID_3_"  style="overflow:visible;"/>
		</clipPath>
		<g class="st0">
			<g>
				<defs>
					<rect id="SVGID_5_" x="-6" y="-6" width="72" height="72"/>
				</defs>
				<clipPath id="SVGID_6_">
					<use xlink:href="#SVGID_5_"  style="overflow:visible;"/>
				</clipPath>
				<g class="st2">
					<defs>
						<rect id="SVGID_7_" x="-6" y="-6" width="72" height="72"/>
					</defs>
					<clipPath id="SVGID_8_">
						<use xlink:href="#SVGID_7_"  style="overflow:visible;"/>
					</clipPath>
					<g style="clip-path:url(#SVGID_8_);">
						<image style="overflow:visible;" width="72" height="72" xlink:href="E62B24DF.png"  transform="matrix(1 0 0 1 -6 -6)">
						</image>
					</g>
				</g>
			</g>
		</g>
	</g>
	<polygon class="st5" points="0,0 60,60 60,30 30,0 	"/>
	<g class="st1">
		<defs>
			<rect id="SVGID_9_" width="300" height="300"/>
		</defs>
		<clipPath id="SVGID_10_">
			<use xlink:href="#SVGID_9_"  style="overflow:visible;"/>
		</clipPath>
		<path class="st11" d="M21.5,14.7L20.9,14l2.7-2.7l2.7,2.7l0.8-0.5l-3.6-3.6L24,9.4l8.2,8.2L31.6,18l-3.9-3.9l-0.8,0.5l3.3,3.3
			l-1.9,1.9c-0.5,0.5-1.1,0.5-1.6,0c-0.3-0.3-0.6-0.6-0.9-0.9c0.2-0.2,0.3-0.4,0.5-0.8c0.3,0.4,0.5,0.6,0.8,0.9
			c0.2,0.2,0.5,0.3,0.7,0l1.2-1.2l-1.4-1.4l-2,2l-0.6-0.6l2-2l-1.4-1.4l-2,2l-0.6-0.6l2-2l-1.4-1.4L21.5,14.7z M27.1,6.8l3.5,3.5
			l0.5-0.5L28,6.7l0.5-0.5l6.7,6.7l-0.5,0.5l-3-3l-0.5,0.5l3.5,3.5l-1.5,1.5l-0.6-0.6l1-1l-2.9-2.9l-2,2l-0.6-0.6l2-2l-2.9-2.9l-1,1
			l-0.6-0.6L27.1,6.8z M26.3,9.8l1.9,1.9l-0.4,0.4l-1.9-1.9L26.3,9.8z M27.2,8.9l1.9,1.9l-0.4,0.4l-1.9-1.9L27.2,8.9z M29.7,13.2
			l1.9,1.9l-0.4,0.4l-1.9-1.9L29.7,13.2z M30.6,12.3l1.9,1.9l-0.4,0.4l-1.9-1.9L30.6,12.3z"/>
		<path class="st11" d="M30.3,19.8c1.3-0.3,2.7-0.7,4-1.4l-1.2-1.2l0.5-0.5l1.3,1.3l3-3l0.5,0.5l-3,3l1.1,1.1L36,20.1L35,19l-1,1
			l0.6,0.1c0,0.9,0,1.7,0,2.3l-0.8,0c0.1-0.8,0.1-1.5,0.1-2.1l-3.4,3.4l-0.5-0.5l3.5-3.5c-1.2,0.5-2.3,0.9-3.4,1.2
			C30.1,20.4,30.2,20.1,30.3,19.8 M32.7,25.9l-0.6-0.6l4.2-4.2l4.2,4.2l-3.2,3.2c-0.6,0.6-1.2,0.6-1.8,0L34,27.1
			c0.1-0.2,0.3-0.5,0.5-0.8c0.5,0.5,0.9,1,1.2,1.3c0.4,0.4,0.7,0.4,1,0.1l0.4-0.4l-3-3L32.7,25.9z M34.7,23.9l3,3l0.6-0.6l-3-3
			L34.7,23.9z M35.9,14.4l0.7,0.3c-0.4,0.8-0.7,1.5-1.1,2.2l-0.7-0.3C35.2,15.8,35.6,15.1,35.9,14.4 M39.3,25.2l-3-3l-0.6,0.6l3,3
			L39.3,25.2z M36.4,17.9c0.8-0.3,1.5-0.7,2.3-1.1l0.3,0.7c-0.8,0.4-1.6,0.8-2.4,1.1L36.4,17.9z M36.9,19.6l2.1,2.1l0.6-0.6
			l-1.8-1.8l0.5-0.5l1.8,1.8l0.6-0.6l-2-2l0.5-0.5l2,2l0.7-0.7l0.6,0.6l-0.7,0.7l2.2,2.2l-0.5,0.5l-2.2-2.2l-0.6,0.6l1.9,1.9
			l-0.5,0.5l-1.9-1.9l-0.6,0.6l2.3,2.3l-0.5,0.5l-5-5L36.9,19.6z"/>
		<path class="st11" d="M41.1,26.1c1.9-0.5,3.8-1.4,5.6-2.5l0.5,0.7c-0.8,0.5-1.6,0.9-2.4,1.3l-6.2,6.2L38,31.2l4.8-4.8
			c-0.7,0.3-1.4,0.5-2.1,0.6C40.8,26.7,41,26.4,41.1,26.1 M47.1,35.1L47,36c-2.4-0.3-4.6-1.1-6.8-2.4c0.1-0.3,0.2-0.6,0.2-0.9
			C42.6,34,44.8,34.8,47.1,35.1 M41,30.6l5-5l0.6,0.6l-5,5L41,30.6z M47.3,33.4l-0.1,0.8c-1.7-0.2-3.4-0.8-5.2-1.6
			c0.1-0.3,0.1-0.6,0.1-0.9C44,32.7,45.7,33.2,47.3,33.4 M47.3,31.8l0,0.8c-1.4-0.3-2.8-0.7-4.1-1.3c0.1-0.3,0.1-0.5,0.1-0.9
			C44.6,31,45.9,31.5,47.3,31.8 M45.8,27.4c1.4,0,2.7-0.3,3.9-0.8l0.4,0.8c-0.3,0.1-0.7,0.2-1,0.3l2.7,2.7L51.3,31
			c-0.9,0.2-1.9,0.2-2.9,0.1c0.3,0.8,0.7,1.8,1.4,2.7c-0.2,0.1-0.5,0.2-0.9,0.3c-0.8-1.3-1.2-2.3-1.4-3.2c-1-0.2-2.1-0.6-3.4-1.2
			c0.1-0.3,0.1-0.6,0.2-0.9c1.1,0.6,2.1,1.1,3.1,1.3c-0.1-0.7-0.1-1.3,0-2c-0.5,0.1-1.1,0.1-1.6,0.2C45.9,28,45.9,27.7,45.8,27.4
			 M50.6,30.2l-2.3-2.3c0,0,0,0,0,0c-0.1,0.8-0.1,1.6,0,2.3C49.1,30.3,49.9,30.3,50.6,30.2"/>
		<g class="st4">
			<g>
				<defs>
					<rect id="SVGID_11_" x="-6" y="94" width="72" height="72"/>
				</defs>
				<clipPath id="SVGID_12_">
					<use xlink:href="#SVGID_11_"  style="overflow:visible;"/>
				</clipPath>
				<g class="st7">
					<defs>
						<rect id="SVGID_13_" x="-6" y="94" width="72" height="72"/>
					</defs>
					<clipPath id="SVGID_14_">
						<use xlink:href="#SVGID_13_"  style="overflow:visible;"/>
					</clipPath>
					<g style="clip-path:url(#SVGID_14_);">
						<image style="overflow:visible;" width="72" height="72" xlink:href="E62B24DD.png"  transform="matrix(1 0 0 1 -6 94)">
						</image>
					</g>
				</g>
			</g>
		</g>
		<polygon class="st11" points="60,130 30,100 0,100 60,160 		"/>
		<path class="st3" d="M37.9,118.3l0.5,0.5l-2.7,2.7c-0.5,0.5-1.1,1-1.7,1.4l0.6,0c0,1.1-0.1,2.1-0.1,3.1l-0.9-0.1
			c0.1-0.9,0.2-1.9,0.3-2.9c-1.1,0.6-2.1,0.8-3.2,0.7c0-0.3,0.1-0.6,0.1-0.9c1.6,0.2,3.1-0.4,4.5-1.8L37.9,118.3z M38.2,115.9
			l2.6,2.6l-5.2,5.2l-0.5-0.5l4.7-4.7l-1.5-1.5l-4.7,4.7l-0.5-0.5L38.2,115.9z M37.4,123.6l3.7,3.7l-3.5,3.5l-0.6-0.6l0.4-0.4
			l-2.6-2.6l-0.4,0.4l-0.6-0.6L37.4,123.6z M35.3,126.8l2.6,2.6l0.8-0.8l-2.6-2.6L35.3,126.8z M40,127.4l-2.6-2.6l-0.8,0.8l2.6,2.6
			L40,127.4z M40.6,119.7l1.2,1.2c0.1-0.5,0.2-1,0.2-1.4l0.8,0.1c0,0.5,0,1-0.1,1.5l-0.7-0.1l1.1,1.1c0.7-0.1,1.3-0.2,1.9-0.3
			l0.2,0.9c-0.4,0-0.9,0.1-1.4,0.1l1.3,1.3l-3.2,3.2l-0.5-0.5l0.3-0.3l-3.3-3.3l-0.3,0.3l-0.5-0.5L40.6,119.7z M38.8,122.7l1.4,1.4
			l1.9-1.9l-1.4-1.4L38.8,122.7z M40.3,121.5l0.7,0.2c-0.2,0.6-0.3,1.2-0.5,1.7l-0.7-0.2C40,122.6,40.1,122,40.3,121.5 M44,124.1
			l-1.4-1.4l-1.9,1.9l1.4,1.4L44,124.1z M43.2,124.4c-0.6,0.2-1.1,0.4-1.6,0.5l-0.2-0.7c0.5-0.1,1-0.3,1.6-0.5L43.2,124.4z"/>
		<g class="st4">
			<g>
				<defs>
					<rect id="SVGID_15_" x="194" y="-6" width="73" height="73"/>
				</defs>
				<clipPath id="SVGID_16_">
					<use xlink:href="#SVGID_15_"  style="overflow:visible;"/>
				</clipPath>
				<g class="st8">
					<defs>
						<rect id="SVGID_17_" x="194" y="-6" width="73" height="73"/>
					</defs>
					<clipPath id="SVGID_18_">
						<use xlink:href="#SVGID_17_"  style="overflow:visible;"/>
					</clipPath>
					<g style="clip-path:url(#SVGID_18_);">
						<image style="overflow:visible;" width="73" height="73" xlink:href="E62B24E3.png"  transform="matrix(1 0 0 1 194 -6)">
						</image>
					</g>
				</g>
			</g>
		</g>
		<polygon class="st3" points="260.1,30 230.1,0 200.1,0 260.1,60 		"/>
		<path class="st11" d="M221.9,11.3c1.3-0.3,2.7-0.7,4-1.4l-1.2-1.2l0.5-0.5l1.3,1.3l3-3l0.5,0.5l-3,3l1.1,1.1l-0.5,0.5l-1.1-1.1
			l-1,1l0.6,0.1c0,0.9,0,1.7,0,2.3l-0.8,0c0.1-0.8,0.1-1.5,0.1-2.1l-3.4,3.4l-0.5-0.5l3.5-3.5c-1.2,0.5-2.3,0.9-3.4,1.2
			C221.7,11.9,221.8,11.6,221.9,11.3 M224.3,17.4l-0.6-0.6l4.2-4.2l4.2,4.2l-3.2,3.2c-0.6,0.6-1.2,0.6-1.8,0l-1.3-1.3
			c0.1-0.2,0.3-0.5,0.5-0.8c0.5,0.5,0.9,1,1.2,1.3c0.4,0.4,0.7,0.4,1,0.1l0.4-0.4l-3-3L224.3,17.4z M226.3,15.4l3,3l0.6-0.6l-3-3
			L226.3,15.4z M227.5,6l0.7,0.3c-0.4,0.8-0.7,1.5-1.1,2.2l-0.7-0.3C226.8,7.3,227.2,6.6,227.5,6 M230.9,16.7l-3-3l-0.6,0.6l3,3
			L230.9,16.7z M228,9.4c0.8-0.3,1.5-0.7,2.3-1.1l0.3,0.7c-0.8,0.4-1.6,0.8-2.4,1.1L228,9.4z M228.5,11.2l2.1,2.1l0.6-0.6l-1.8-1.8
			l0.5-0.5l1.8,1.8l0.6-0.6l-2-2l0.5-0.5l2,2l0.7-0.7l0.6,0.6l-0.7,0.7l2.2,2.2l-0.5,0.5l-2.2-2.2l-0.6,0.6l1.9,1.9l-0.5,0.5
			l-1.9-1.9l-0.6,0.6l2.3,2.3l-0.5,0.5l-5-5L228.5,11.2z"/>
		<path class="st11" d="M232.7,17.6c1.9-0.5,3.8-1.4,5.6-2.5l0.5,0.7c-0.8,0.5-1.6,0.9-2.4,1.3l-6.2,6.2l-0.6-0.6l4.8-4.8
			c-0.7,0.3-1.4,0.5-2.1,0.6C232.4,18.2,232.6,17.9,232.7,17.6 M238.7,26.6l-0.1,0.8c-2.4-0.3-4.6-1.1-6.8-2.4
			c0.1-0.3,0.2-0.6,0.2-0.9C234.2,25.5,236.4,26.3,238.7,26.6 M232.6,22.1l5-5l0.6,0.6l-5,5L232.6,22.1z M238.9,24.9l-0.1,0.8
			c-1.7-0.2-3.4-0.8-5.2-1.6c0.1-0.3,0.1-0.6,0.1-0.9C235.6,24.2,237.3,24.7,238.9,24.9 M238.9,23.3l0,0.8c-1.4-0.3-2.8-0.7-4.1-1.3
			c0.1-0.3,0.1-0.5,0.1-0.9C236.2,22.6,237.5,23,238.9,23.3 M237.4,18.9c1.4,0,2.7-0.3,3.9-0.8l0.4,0.8c-0.3,0.1-0.7,0.2-1,0.3
			l2.7,2.7l-0.5,0.5c-0.9,0.2-1.9,0.2-2.9,0.1c0.3,0.8,0.7,1.8,1.4,2.7c-0.2,0.1-0.5,0.2-0.9,0.3c-0.8-1.3-1.2-2.3-1.4-3.2
			c-1-0.2-2.1-0.6-3.4-1.2c0.1-0.3,0.1-0.6,0.2-0.9c1.1,0.6,2.1,1.1,3.1,1.3c-0.1-0.7-0.1-1.3,0-2c-0.5,0.1-1.1,0.1-1.6,0.2
			C237.5,19.5,237.5,19.2,237.4,18.9 M242.2,21.7l-2.3-2.3c0,0,0,0,0,0c-0.1,0.8-0.1,1.6,0,2.3C240.7,21.9,241.5,21.9,242.2,21.7"/>
		<path class="st11" d="M244,24.4l3.2,3.2l1.8-1.8l0.7,0.7l-1.8,1.8l3.2,3.2l-3.8,3.8l-0.7-0.7l0.4-0.4l-2.5-2.5l-3.1,3.1l-0.7-0.7
			l3.1-3.1l-2.5-2.5l-0.4,0.4l-0.7-0.7L244,24.4z M242,27.8l2.5,2.5l2.1-2.1l-2.5-2.5L242,27.8z M249.8,31.5l-2.5-2.5l-2.1,2.1
			l2.5,2.5L249.8,31.5z"/>
		<polygon class="st6" points="160,30 130,0 100,0 160,60 		"/>
		<path class="st3" d="M126.9,8.1l0.7,0.7l-1.1,1.1l5,5l2.1-2.1l-6-6l0.6-0.6l6.7,6.7l-3.9,3.9l-0.7-0.7l0.5-0.5l-5-5l-2.4,2.4
			c-0.5,0.5-0.5,1,0,1.5l4.1,4.1c0.5,0.5,0.9,0.6,1.4,0.3c0.4-0.2,1-0.6,1.6-1.1c0.1,0.3,0.3,0.6,0.5,1c-0.7,0.5-1.2,0.9-1.6,1.1
			c-0.8,0.5-1.6,0.3-2.3-0.5l-4.4-4.4c-0.8-0.8-0.8-1.7,0-2.6L126.9,8.1z"/>
		<path class="st3" d="M130.3,19.8c1.3-0.3,2.7-0.7,4-1.4l-1.2-1.2l0.5-0.5l1.3,1.3l3-3l0.5,0.5l-3,3l1.1,1.1l-0.5,0.5L135,19l-1,1
			l0.6,0.1c0,0.9,0,1.7,0,2.3l-0.8,0c0.1-0.8,0.1-1.5,0.1-2.1l-3.4,3.4l-0.5-0.5l3.5-3.5c-1.2,0.5-2.3,0.9-3.4,1.2
			C130.1,20.4,130.2,20.1,130.3,19.8 M132.7,25.9l-0.6-0.6l4.2-4.2l4.2,4.2l-3.2,3.2c-0.6,0.6-1.2,0.6-1.8,0l-1.4-1.4
			c0.1-0.2,0.3-0.5,0.5-0.8c0.5,0.5,0.9,1,1.2,1.3c0.4,0.4,0.7,0.4,1,0.1l0.4-0.4l-3-3L132.7,25.9z M134.7,23.9l3,3l0.6-0.6l-3-3
			L134.7,23.9z M135.9,14.4l0.7,0.3c-0.4,0.8-0.7,1.5-1.1,2.2l-0.7-0.3C135.2,15.8,135.6,15.1,135.9,14.4 M139.3,25.2l-3-3l-0.6,0.6
			l3,3L139.3,25.2z M136.4,17.9c0.8-0.3,1.5-0.7,2.3-1.1l0.3,0.7c-0.8,0.4-1.6,0.8-2.4,1.1L136.4,17.9z M136.9,19.6l2.1,2.1l0.6-0.6
			l-1.8-1.8l0.5-0.5l1.8,1.8l0.6-0.6l-2-2l0.5-0.5l2,2l0.7-0.7l0.6,0.6l-0.7,0.7l2.2,2.2l-0.5,0.5l-2.2-2.2l-0.6,0.6l1.9,1.9
			l-0.5,0.5l-1.9-1.9l-0.6,0.6l2.3,2.3l-0.5,0.5l-5-5L136.9,19.6z"/>
		<path class="st3" d="M141.1,26.1c1.9-0.5,3.8-1.4,5.6-2.5l0.5,0.7c-0.8,0.5-1.6,0.9-2.4,1.3l-6.2,6.2l-0.6-0.6l4.8-4.8
			c-0.7,0.3-1.4,0.5-2.1,0.6C140.8,26.7,141,26.4,141.1,26.1 M147.1,35.1L147,36c-2.4-0.3-4.6-1.1-6.8-2.4c0.1-0.3,0.2-0.6,0.2-0.9
			C142.6,34,144.8,34.8,147.1,35.1 M141,30.6l5-5l0.6,0.6l-5,5L141,30.6z M147.3,33.4l-0.1,0.8c-1.7-0.2-3.4-0.8-5.2-1.6
			c0.1-0.3,0.1-0.6,0.1-0.9C144,32.7,145.7,33.2,147.3,33.4 M147.3,31.8l0,0.8c-1.4-0.3-2.8-0.7-4.1-1.3c0.1-0.3,0.1-0.5,0.1-0.9
			C144.6,31,145.9,31.5,147.3,31.8 M145.8,27.4c1.4,0,2.7-0.3,3.9-0.8l0.4,0.8c-0.3,0.1-0.7,0.2-1,0.3l2.7,2.7l-0.5,0.5
			c-0.9,0.2-1.9,0.2-2.9,0.1c0.3,0.8,0.7,1.8,1.4,2.7c-0.2,0.1-0.5,0.2-0.9,0.3c-0.8-1.3-1.2-2.3-1.4-3.2c-1-0.2-2.1-0.6-3.4-1.2
			c0.1-0.3,0.1-0.6,0.2-0.9c1.1,0.6,2.1,1.1,3.1,1.3c-0.1-0.7-0.1-1.3,0-2c-0.5,0.1-1.1,0.1-1.6,0.2C145.9,28,145.9,27.7,145.8,27.4
			 M150.6,30.2l-2.3-2.3c0,0,0,0,0,0c-0.1,0.8-0.1,1.6,0,2.3C149.1,30.3,149.9,30.3,150.6,30.2"/>
		<g class="st4">
			<g>
				<defs>
					<rect id="SVGID_19_" x="-6" y="194" width="212" height="53"/>
				</defs>
				<clipPath id="SVGID_20_">
					<use xlink:href="#SVGID_19_"  style="overflow:visible;"/>
				</clipPath>
				<g class="st9">
					<defs>
						<rect id="SVGID_21_" x="-6" y="194" width="212" height="53"/>
					</defs>
					<clipPath id="SVGID_22_">
						<use xlink:href="#SVGID_21_"  style="overflow:visible;"/>
					</clipPath>
					<g style="clip-path:url(#SVGID_22_);">
						<image style="overflow:visible;" width="212" height="53" xlink:href="E62B24E5.png"  transform="matrix(1 0 0 1 -6 194)">
						</image>
					</g>
				</g>
			</g>
		</g>
		<polygon class="st3" points="200,240.1 0,240.1 0,200.1 200,200.1 180,220 		"/>
		<path class="st11" d="M89.6,225.8h-1v-4.5H93l0.2-1.1h-6v-0.8h13.5v0.8h-6.4l-0.3,1.1h5.5v3.1c0,0.9-0.5,1.4-1.4,1.4
			c-0.4,0-0.9,0-1.4,0c0-0.3-0.1-0.7-0.2-1.1c0.5,0.1,1,0.1,1.3,0.1c0.4,0,0.6-0.2,0.6-0.5v-2h-2.4v3.3h-1v-3.3h-2.3v3.3h-1v-3.3
			h-2.3V225.8z M87.7,214.7h5.8v-0.8h-5.1V213h11v0.8h-5v0.8h5.8v2.5h-1.1v-1.7h-4.7v3.3h-1v-3.3h-4.7v1.7h-1.1V214.7z M89.6,216.3
			h3.2v0.7h-3.2V216.3z M89.6,217.8h3.2v0.7h-3.2V217.8z M95.2,216.3h3.2v0.7h-3.2V216.3z M95.2,217.8h3.2v0.7h-3.2V217.8z"/>
		<path class="st11" d="M101.1,222.7c0.9-1.3,1.6-2.8,2.2-4.5h-2v-0.9h2.1v-5h0.9v5h1.8v0.9h-1.8v1.7l0.5-0.4
			c0.8,0.7,1.4,1.4,1.8,1.9l-0.7,0.7c-0.6-0.7-1.1-1.3-1.6-1.9v5.6h-0.9v-5.8c-0.5,1.4-1.1,2.6-1.8,3.7
			C101.4,223.4,101.3,223.1,101.1,222.7 M101.3,213.7l0.8-0.3c0.3,0.9,0.6,1.8,0.9,2.8l-0.9,0.4
			C101.9,215.4,101.6,214.5,101.3,213.7 M104.6,216.2c0.4-0.9,0.7-1.8,1-2.8l0.9,0.3c-0.3,1-0.7,2-1.1,2.8L104.6,216.2z
			 M106.4,217.2h3.5v-0.9h-3v-0.9h3v-0.9h-3.3v-0.9h3.3v-1.2h1v1.2h3.6v0.9H111v0.9h3.2v0.9H111v0.9h3.8v0.9h-8.3V217.2z
			 M108.1,225.8h-1v-6.9h6.9v5.3c0,1-0.5,1.5-1.5,1.5h-2.2c0-0.3-0.1-0.6-0.2-1.1c0.8,0.1,1.5,0.1,2.1,0.1c0.6,0,0.9-0.2,0.9-0.7
			v-0.6h-4.9V225.8z M113,219.7h-4.9v1h4.9V219.7z M108.1,222.5h4.9v-1h-4.9V222.5z"/>
		<path class="st11" d="M115.2,219c1.1-2,2-4.2,2.5-6.6l1,0.2c-0.3,1.1-0.6,2.1-0.9,3v10.2h-1v-7.9c-0.4,0.8-0.8,1.6-1.2,2.2
			C115.5,219.8,115.4,219.4,115.2,219 M118.9,214.6h0.9v8.3h-0.9V214.6z M120.2,216.2c1.1-1.2,2-2.5,2.6-3.9l1,0.3
			c-0.2,0.4-0.4,0.7-0.6,1.1h4.5v0.9c-0.6,0.9-1.4,1.7-2.3,2.4c0.9,0.5,2.1,0.8,3.4,1.1c-0.1,0.2-0.3,0.6-0.5,1
			c-1.7-0.4-2.9-0.9-3.8-1.5c-1,0.6-2.3,1.2-3.8,1.8c-0.2-0.3-0.4-0.6-0.6-0.9c1.4-0.4,2.6-0.9,3.6-1.5c-0.6-0.5-1.1-1.1-1.6-1.7
			c-0.4,0.5-0.8,1-1.2,1.4C120.7,216.7,120.5,216.5,120.2,216.2 M127.6,221.6l0.6,0.8c-2.2,1.7-4.7,2.9-7.5,3.6
			c-0.2-0.3-0.4-0.6-0.5-0.9C123,224.4,125.4,223.2,127.6,221.6 M125,218.6l0.7,0.7c-1.4,0.9-2.9,1.7-4.5,2.2
			c-0.1-0.3-0.4-0.5-0.6-0.8C122.2,220.2,123.7,219.5,125,218.6 M126.3,220l0.6,0.7c-1.6,1.2-3.4,2.2-5.6,3
			c-0.2-0.3-0.4-0.6-0.6-0.8C123,222.1,124.9,221.1,126.3,220 M126.4,214.6h-3.8l0,0c0.5,0.8,1.2,1.4,1.9,1.9
			C125.3,215.9,126,215.3,126.4,214.6"/>
		<path class="st11" d="M72.1,213c-0.1-0.1-0.1-0.2,0-0.2l1.3-0.4c0.1,0,0.3-0.2,0.3-0.3l0.5-1.3c0-0.1,0.1-0.1,0.2,0l0.8,1.2
			c0.1,0.1,0.2,0.2,0.4,0.2l1.4,0c0.1,0,0.2,0.1,0.1,0.2l-0.9,1.1c-0.1,0.1-0.1,0.3-0.1,0.4l0.4,1.3c0,0.1,0,0.2-0.2,0.1l-1.3-0.5
			c-0.1,0-0.3,0-0.4,0.1l-1.1,0.8c-0.1,0.1-0.2,0-0.2-0.1l0.1-1.4c0-0.1-0.1-0.3-0.2-0.4L72.1,213z"/>
		<path class="st11" d="M73.2,217.3c0.2-0.1,0.1-0.3-0.1-0.4l-2.4-0.6c-0.2-0.1-0.5-0.3-0.6-0.5l-0.9-2.3c-0.1-0.2-0.2-0.2-0.4,0
			l-1.3,2.1c-0.1,0.2-0.4,0.4-0.6,0.4l-2.5,0.1c-0.2,0-0.3,0.2-0.1,0.3l1.6,1.9c0.1,0.2,0.2,0.5,0.2,0.7l-0.6,2.4
			c-0.1,0.2,0.1,0.3,0.3,0.2l2.3-0.9c0.2-0.1,0.5-0.1,0.7,0.1l2.1,1.3c0.2,0.1,0.3,0,0.3-0.2l-0.2-2.4c0-0.2,0.1-0.5,0.3-0.7
			L73.2,217.3z"/>
		<path class="st11" d="M64.5,214.2l0.8,0.3c0.1,0,0.1,0,0.1-0.1l-0.2-0.8c0-0.1,0-0.2,0-0.2l0.5-0.6c0-0.1,0-0.1-0.1-0.1l-0.8,0
			c-0.1,0-0.2-0.1-0.2-0.1l-0.4-0.7c0-0.1-0.1-0.1-0.1,0l-0.3,0.8c0,0.1-0.1,0.1-0.2,0.2l-0.8,0.2c-0.1,0-0.1,0.1,0,0.1l0.6,0.5
			c0.1,0,0.1,0.1,0.1,0.2l0,0.8c0,0.1,0,0.1,0.1,0.1l0.7-0.5C64.3,214.1,64.4,214.1,64.5,214.2"/>
		<path class="st11" d="M79,226.3l-1.7-1.7l-5.3-5.4c-0.2,0.2-0.4,0.5-0.3,0.8l0.1,2l5.7,5.7c0.3,0.3,0.8,0.4,1.1,0.1l0.5-0.5
			C79.4,227.2,79.4,226.7,79,226.3"/>
		<g class="st4">
			<g>
				<defs>
					<rect id="SVGID_23_" x="-7" y="244" width="213" height="53"/>
				</defs>
				<clipPath id="SVGID_24_">
					<use xlink:href="#SVGID_23_"  style="overflow:visible;"/>
				</clipPath>
				<g class="st10">
					<defs>
						<rect id="SVGID_25_" x="-7" y="244" width="213" height="53"/>
					</defs>
					<clipPath id="SVGID_26_">
						<use xlink:href="#SVGID_25_"  style="overflow:visible;"/>
					</clipPath>
					<g style="clip-path:url(#SVGID_26_);">
						<image style="overflow:visible;" width="213" height="53" xlink:href="E62B24E7.png"  transform="matrix(1 0 0 1 -7 244)">
						</image>
					</g>
				</g>
			</g>
		</g>
		<polygon class="st6" points="0,290 200,290 200,250 0,250 20,269.9 		"/>
		<path class="st3" d="M88.6,265.8h1.2v1.9H98v-3.5h-9.9v-1h11v6.4H98v-0.8h-8.2v4c0,0.8,0.4,1.3,1.2,1.3h6.7c0.8,0,1.3-0.3,1.4-0.8
			c0.2-0.6,0.3-1.3,0.4-2.2c0.4,0.2,0.7,0.3,1.2,0.4c-0.1,0.9-0.3,1.7-0.4,2.3c-0.3,1-1,1.5-2.3,1.5h-7.3c-1.4,0-2.1-0.7-2.1-2.2
			V265.8z"/>
		<path class="st3" d="M101.1,272.6c0.9-1.3,1.6-2.8,2.2-4.5h-2v-0.9h2.1v-5h0.9v5h1.8v0.9h-1.8v1.7l0.5-0.4
			c0.8,0.7,1.4,1.4,1.8,1.9l-0.7,0.7c-0.6-0.7-1.1-1.3-1.6-1.9v5.6h-0.9V270c-0.5,1.4-1.1,2.6-1.8,3.7
			C101.4,273.3,101.3,272.9,101.1,272.6 M101.3,263.6l0.8-0.3c0.3,0.9,0.6,1.8,0.9,2.8l-0.9,0.4
			C101.9,265.3,101.6,264.4,101.3,263.6 M104.6,266.1c0.4-0.9,0.7-1.8,1-2.8l0.9,0.3c-0.3,1-0.7,2-1.1,2.8L104.6,266.1z M106.4,267
			h3.5v-0.9h-3v-0.9h3v-0.9h-3.3v-0.9h3.3v-1.2h1v1.2h3.6v0.9H111v0.9h3.2v0.9H111v0.9h3.8v0.9h-8.3V267z M108.1,275.7h-1v-6.9h6.9
			v5.3c0,1-0.5,1.5-1.5,1.5h-2.2c0-0.3-0.1-0.6-0.2-1.1c0.8,0.1,1.5,0.1,2.1,0.1c0.6,0,0.9-0.2,0.9-0.7v-0.6h-4.9V275.7z M113,269.6
			h-4.9v1h4.9V269.6z M108.1,272.4h4.9v-1h-4.9V272.4z"/>
		<path class="st3" d="M115.2,268.9c1.1-2,2-4.2,2.5-6.6l1,0.2c-0.3,1.1-0.6,2.1-0.9,3v10.2h-1v-7.9c-0.4,0.8-0.8,1.6-1.2,2.2
			C115.5,269.7,115.4,269.3,115.2,268.9 M118.9,264.4h0.9v8.3h-0.9V264.4z M120.2,266.1c1.1-1.2,2-2.5,2.6-3.9l1,0.3
			c-0.2,0.4-0.4,0.7-0.6,1.1h4.5v0.9c-0.6,0.9-1.4,1.7-2.3,2.4c0.9,0.5,2.1,0.8,3.4,1.1c-0.1,0.2-0.3,0.6-0.5,1
			c-1.7-0.4-2.9-0.9-3.8-1.5c-1,0.6-2.3,1.2-3.8,1.8c-0.2-0.3-0.4-0.6-0.6-0.9c1.4-0.4,2.6-0.9,3.6-1.5c-0.6-0.5-1.1-1.1-1.6-1.7
			c-0.4,0.5-0.8,1-1.2,1.4C120.7,266.5,120.5,266.3,120.2,266.1 M127.6,271.5l0.6,0.8c-2.2,1.7-4.7,2.9-7.5,3.6
			c-0.2-0.3-0.4-0.6-0.5-0.9C123,274.2,125.4,273.1,127.6,271.5 M125,268.4l0.7,0.7c-1.4,0.9-2.9,1.7-4.5,2.2
			c-0.1-0.3-0.4-0.5-0.6-0.8C122.2,270.1,123.7,269.4,125,268.4 M126.3,269.8l0.6,0.7c-1.6,1.2-3.4,2.2-5.6,3
			c-0.2-0.3-0.4-0.6-0.6-0.8C123,272,124.9,271,126.3,269.8 M126.4,264.5h-3.8l0,0c0.5,0.8,1.2,1.4,1.9,1.9
			C125.3,265.8,126,265.2,126.4,264.5"/>
		<path class="st3" d="M72.1,262.8c-0.1-0.1-0.1-0.2,0-0.2l1.3-0.4c0.1,0,0.3-0.2,0.3-0.3l0.5-1.3c0-0.1,0.1-0.1,0.2,0l0.8,1.2
			c0.1,0.1,0.2,0.2,0.4,0.2l1.4,0c0.1,0,0.2,0.1,0.1,0.2l-0.9,1.1c-0.1,0.1-0.1,0.3-0.1,0.4l0.4,1.3c0,0.1,0,0.2-0.2,0.1l-1.3-0.5
			c-0.1,0-0.3,0-0.4,0.1l-1.1,0.8c-0.1,0.1-0.2,0-0.2-0.1l0.1-1.4c0-0.1-0.1-0.3-0.2-0.4L72.1,262.8z"/>
		<path class="st3" d="M73.2,267.2c0.2-0.1,0.1-0.3-0.1-0.4l-2.4-0.6c-0.2-0.1-0.5-0.3-0.6-0.5l-0.9-2.3c-0.1-0.2-0.2-0.2-0.4,0
			l-1.3,2.1c-0.1,0.2-0.4,0.4-0.6,0.4l-2.5,0.1c-0.2,0-0.3,0.2-0.1,0.3l1.6,1.9c0.1,0.2,0.2,0.5,0.2,0.7l-0.6,2.4
			c-0.1,0.2,0.1,0.3,0.3,0.2l2.3-0.9c0.2-0.1,0.5-0.1,0.7,0.1l2.1,1.3c0.2,0.1,0.3,0,0.3-0.2l-0.2-2.4c0-0.2,0.1-0.5,0.3-0.7
			L73.2,267.2z"/>
		<path class="st3" d="M64.5,264l0.8,0.3c0.1,0,0.1,0,0.1-0.1l-0.2-0.8c0-0.1,0-0.2,0-0.2l0.5-0.6c0-0.1,0-0.1-0.1-0.1l-0.8,0
			c-0.1,0-0.2-0.1-0.2-0.1l-0.4-0.7c0-0.1-0.1-0.1-0.1,0l-0.3,0.8c0,0.1-0.1,0.1-0.2,0.2l-0.8,0.2c-0.1,0-0.1,0.1,0,0.1l0.6,0.5
			c0.1,0,0.1,0.1,0.1,0.2l0,0.8c0,0.1,0,0.1,0.1,0.1l0.7-0.5C64.3,264,64.4,264,64.5,264"/>
		<path class="st3" d="M79,276.2l-1.7-1.7l-5.3-5.4c-0.2,0.2-0.4,0.5-0.3,0.8l0.1,2l5.7,5.7c0.3,0.3,0.8,0.4,1.1,0.1l0.5-0.5
			C79.4,277,79.4,276.5,79,276.2"/>
	</g>
</g>
</svg>
