<?xml version="1.0" encoding="utf-8"?>
<!-- Generator: Adobe Illustrator 18.0.0, SVG Export Plug-In . SVG Version: 6.00 Build 0)  -->
<!DOCTYPE svg PUBLIC "-//W3C//DTD SVG 1.1//EN" "http://www.w3.org/Graphics/SVG/1.1/DTD/svg11.dtd">
<svg width="360px" version="1.1" id="图层_1" xmlns="http://www.w3.org/2000/svg" xmlns:xlink="http://www.w3.org/1999/xlink" x="0px" y="0px"
	 viewBox="0 0 800 2000" style="enable-background:new 0 0 800 2000;" xml:space="preserve">
<polygon style="fill:#B6B3AA;" points="0,28 3.969,31.875 27.969,7.875 51.969,31.875 56,28 27.969,-0.125 "/>
<polygon style="fill:#B6B3AA;" points="100,3 102.938,-0.063 124,21 103.063,42 100,39 118,21 "/>
<polygon style="fill:#FF475C;" points="400,3 402.938,-0.063 424,21 403.063,42 400,39 418,21 "/>
<polygon style="fill:#FF475C;" points="324,3.063 321.063,0 300,21.063 320.938,42.063 324,39.063 306,21.063 "/>
<polygon style="fill:#B6B3AA;" points="224,3.063 221.063,0 200,21.063 220.938,42.063 224,39.063 206,21.063 "/>
<polygon style="fill:#B6B3AA;" points="500,3.875 504,0 520,15.875 536,0 539.875,3.875 520,24 "/>
<polygon style="fill:#B6B3AA;" points="600.125,20.125 604.125,24 620.125,8.125 636.125,24 640,20.125 620.125,0 "/>
<g>
	<path style="fill:#FF4558;" d="M40.917,232.097c-2.149-0.417-1.105-1.574-1.105-1.574s2.103-3.466-0.416-5.986
		c-3.122-3.121-10.708,0.397-10.708,0.397c-2.897,0.899-2.129-0.41-1.72-2.639c0-2.626-0.899-7.069-8.617-4.445
		c-7.71,2.639-14.33,11.884-14.33,11.884c-4.604,6.144-3.994,10.892-3.994,10.892c1.15,10.482,12.288,13.36,20.951,14.041
		c9.114,0.715,21.414-3.142,25.145-11.064C49.851,235.667,43.073,232.527,40.917,232.097z M21.652,251.712
		c-9.047,0.423-16.362-4.114-16.362-10.152c0-6.044,7.314-10.892,16.362-11.309c9.054-0.417,16.382,3.313,16.382,9.345
		C38.034,245.633,30.706,251.301,21.652,251.712z"/>
	<path style="fill:#FF4558;" d="M19.847,234.232c-9.1,1.065-8.048,9.589-8.048,9.589s-0.093,2.699,2.44,4.074
		c5.324,2.884,10.807,1.138,13.578-2.439C30.587,241.878,28.96,233.175,19.847,234.232z M17.552,246.196
		c-1.699,0.199-3.068-0.78-3.068-2.202c0-1.415,1.216-2.897,2.916-3.075c1.952-0.186,3.222,0.939,3.222,2.36
		C20.621,244.695,19.244,246.003,17.552,246.196z M22.916,241.626c-0.575,0.43-1.284,0.371-1.588-0.145
		c-0.317-0.503-0.198-1.31,0.384-1.733c0.675-0.502,1.376-0.358,1.679,0.146C23.696,240.409,23.478,241.183,22.916,241.626z"/>
	<path style="fill:#FF4558;" d="M45.348,228.406c0.733,0,1.357-0.542,1.461-1.25c0.013-0.053,0.02-0.099,0.02-0.159
		c1.111-9.992-8.188-8.273-8.188-8.273c-0.826,0-1.488,0.668-1.488,1.501c0,0.82,0.662,1.488,1.488,1.488
		c6.679-1.474,5.206,5.205,5.206,5.205C43.847,227.745,44.52,228.406,45.348,228.406z"/>
	<path style="fill:#FF4558;" d="M44.264,210.964c-3.215-0.753-6.522-0.104-7.448,0.073c-0.072,0.007-0.139,0.074-0.205,0.088
		c-0.032,0.007-0.052,0.04-0.052,0.04c-0.913,0.258-1.581,1.104-1.581,2.103c0,1.191,0.965,2.17,2.169,2.17
		c0,0,1.171-0.157,1.964-0.467c0.787-0.317,7.446-0.236,10.754,5.319c1.805,4.054,0.794,6.767,0.667,7.203
		c0,0-0.429,1.054-0.429,2.09c0,1.197,0.966,1.949,2.161,1.949c1,0,1.84-0.136,2.085-1.827h0.013
		C57.913,217.868,50.017,212.307,44.264,210.964z"/>
</g>
<path id="Fill-8_7_" style="fill:#07C4F3;" d="M317.237,256.874h-2.894
	c-2.934-0.298-6.975-0.506-8.226-2.55c-0.434-0.706-0.408-2.278,0.04-3.075c0.661-1.173,2.174-1.497,3.927-1.738
	c-1.728-1.37-3.328-2.864-4.259-5.059c-0.148-0.349-0.31-0.722-0.453-1.091c-0.146-0.377,0.021-0.413-0.197-0.772
	c-0.38,0.302-0.72,0.497-0.961,0.938c-0.502,0.582-2.055,3.798-3.166,3.209c-0.648-0.145-0.923-2.503-1.049-3.333v-2.064
	c0.673-5.312,3.493-8.528,6.901-11.162c0.691-1.872,1.513-6.625,1.811-7.677c0.579-3.398,1.168-4.741,2.341-6.575
	c2.127-3.316,4.025-5.229,8.125-6.541s9.942-1.192,13.724,0.404c2.022,0.852,3.626,1.726,4.961,3.033
	c2.094,2.05,3.319,4.477,4.175,7.766c0.139,0.532,1.61,7.227,1.612,9.548c1.288,1.815,2.461,3.802,3.598,6.352
	c0.92,2.06,1.693,5.871,0.619,8.289c-0.261,0.593-0.87,2.019-1.508,2.03c-0.732,0.012-1.262-1.441-1.635-1.988
	c-0.431-0.645-0.791-1.253-1.116-1.902c-0.608,0.755-0.835,1.776-1.28,2.712c-0.626,1.313-1.532,2.463-2.521,3.439
	c1.084,0.6,2.425,0.756,3.413,1.53c0.629,0.493,1.367,1.557,1.133,2.715c-0.129,0.626-0.701,1.252-1.161,1.578
	c-3.084,2.188-10.383,1.907-14.467,0.568c-0.389-0.131-0.793-0.234-1.198-0.366c-0.373-0.12-0.792-0.516-1.142-0.572
	c-0.291-0.045-0.72,0.15-1.091,0.127c-0.41-0.026-0.889-0.11-1.074-0.08c-0.207,0.031-0.495,0.303-0.744,0.443
	C321.733,255.999,319.787,256.794,317.237,256.874"/>
<g>
	<path style="fill-rule:evenodd;clip-rule:evenodd;fill:#63C12E;" d="M141.221,224.121c0.681,0-0.016-0.074,0.652,0
		c-1.817-8.462-9.884-14.098-20.211-14.098c-11.545,0-21.002,7.869-21.002,17.862c0,5.768,3.146,10.505,8.404,14.179l-2.101,6.318
		l7.342-3.682c2.627,0.52,4.735,1.055,7.357,1.055c0.659,0,1.313-0.032,1.961-0.084c-0.41-1.404-0.648-2.875-0.648-4.401
		C122.975,232.094,133.165,224.121,141.221,224.121z M114.684,224.121c-2.014,0-3.021-0.976-3.021-3.021
		c0-1.857,0.944-3.021,3.021-3.021c2.046,0,3.021,1.101,3.021,3.021C117.705,223.083,116.698,224.121,114.684,224.121z
		 M128.782,224.121c-2.046,0-3.021-1.038-3.021-3.021c0-2.014,0.881-3.021,3.021-3.021c2.014,0,3.021,1.038,3.021,3.021
		S130.859,224.121,128.782,224.121z"/>
	<path style="fill-rule:evenodd;clip-rule:evenodd;fill:#63C12E;" d="M160,241.018c0-8.397-7.305-15.701-16.742-15.701
		c-9.993,0-18.63,8.812-18.63,16.05c0,10.007,7.539,14.893,17.532,14.893c2.091,0,4.201-0.528,6.302-1.054l5.761,3.155l-1.58-5.249
		C156.859,249.949,160,245.755,160,241.018z M136.313,238.83c-1.265,0-2.541-1.258-2.541-2.542c0-1.266,1.276-2.541,2.541-2.541
		c1.922,0,3.18,1.275,3.18,2.541C139.493,237.572,138.235,238.83,136.313,238.83z M147.872,238.768
		c-1.225,0-2.461-1.227-2.461-2.479c0-1.234,1.236-2.478,2.461-2.478c1.857,0,3.101,1.243,3.101,2.478
		C150.974,237.54,149.729,238.768,147.872,238.768z"/>
</g>
<path style="fill-rule:evenodd;clip-rule:evenodd;fill:#FFC600;" d="M460.472,223.17C460.472,222.506,461.136,223.17,460.472,223.17
	l-18.767-2.085l-10.304-17.725c-0.666,0-0.666,0-1.33,0l-9.219,17.725L400,223.04l0,0l16.682,12.642l-4.812,19.966
	c0,0.664,0.136,0.664,1.464,0.664l17.334-10.63l17.297,10.63c0.666,0,0.682,0,1.346-0.664l-5.521-19.966L460.472,223.17z
	 M419.63,239.293l15.755-12.008l-17.928-3.073h27.224l-14.665,12.484l15.579,2.597H419.63z"/>
<g>
	<g>
		<path style="fill-rule:evenodd;clip-rule:evenodd;fill:#C570CD;" d="M249.689,223.691l-16.68,16.936l-0.312-0.317
			c-0.358,0.367-0.743,0.702-1.149,1.01H249.8c0.873-2.713,1.354-5.617,1.354-8.64C251.155,229.527,250.635,226.502,249.689,223.691
			z M237,208.608v24.073h-1.242c0,0.976-0.135,1.916-0.368,2.814l13.553-13.761C246.527,216.031,242.287,211.382,237,208.608z
			 M219.762,224.04h-18.254c-0.873,2.713-1.354,5.617-1.354,8.64c0,3.419,0.612,6.686,1.717,9.695l15.394-15.631
			C217.936,225.692,218.787,224.78,219.762,224.04z M233.147,225.552c0.843,0.985,1.513,2.133,1.962,3.399v-21.235
			c-2.925-1.232-6.113-1.916-9.454-1.916c-3.223,0-6.303,0.636-9.141,1.786l17.164,17.427L233.147,225.552z M225.655,243.331
			c-0.242,0-0.48-0.021-0.718-0.038l12.842,13.039c5.043-2.879,9.06-7.497,11.33-13.092H226.91
			C226.498,243.294,226.081,243.331,225.655,243.331z M218.091,239.725v18.632c2.39,0.781,4.93,1.203,7.564,1.203
			c3.686,0,7.186-0.831,10.349-2.314l-14.774-15.002C220.03,241.626,218.966,240.768,218.091,239.725z M215.678,231.071
			l-13.025,13.225c2.756,6.052,7.601,10.842,13.547,13.347V236.41c-0.413-1.162-0.65-2.415-0.65-3.73
			C215.551,232.132,215.602,231.597,215.678,231.071z M225.655,222.029c0.985,0,1.935,0.156,2.835,0.433l-13.828-14.041
			c-5.572,2.811-10.024,7.692-12.461,13.699h22.199C224.811,222.066,225.228,222.029,225.655,222.029z"/>
	</g>
</g>
<path style="fill-rule:evenodd;clip-rule:evenodd;fill:#B6B3AD;" d="M115,306.611c0,0-2.404-6.611-7.5-6.611
	c-5.096,0-7.5,4.573-7.5,8.5c0,11.294,12.382,17.08,15,21.722c2.468-4.668,15-10.339,15-21.722c0-3.861-2.606-8.5-7.5-8.5
	C117.412,300,115,306.611,115,306.611z"/>
<path style="fill-rule:evenodd;clip-rule:evenodd;fill:#B6B3AD;" d="M2.081,300.123v2.941h2.973v13.824l-5.054,5h9.514v11.823
	L11,338.123l1.486-4.412v-11.823H22l-5.054-5v-13.824h2.973v-2.941H2.081z"/>
<path style="fill-rule:evenodd;clip-rule:evenodd;fill:#FF475C;" d="M317,307.493c0,0-2.724-7.493-8.5-7.493s-8.5,5.183-8.5,9.633
	c0,12.8,14.032,19.358,17,24.618c2.797-5.291,17-11.718,17-24.618c0-4.376-2.953-9.633-8.5-9.633
	C319.734,300,317,307.493,317,307.493z"/>
<path style="fill-rule:evenodd;clip-rule:evenodd;fill:#414141;" d="M202.658,300v3.757h3.797v17.656L200,327.8h12.151v15.102
	l1.899,5.635l1.899-5.635V327.8H228.1l-6.455-6.386v-17.656h3.797V300H202.658z"/>
<polygon style="fill:#B6B3AD;" points="718,18.125 700.125,36 700.125,0 "/>
<g>
	<path style="fill:#B6B3AD;" d="M15,433.61c-0.64,0-1.279-0.244-1.768-0.732c-0.977-0.977-0.977-2.559,0-3.535l7.5-7.5
		c0.469-0.469,1.105-0.732,1.768-0.732H32v-16H5v16h5c1.381,0,2.5,1.119,2.5,2.5s-1.119,2.5-2.5,2.5H2.5c-1.381,0-2.5-1.119-2.5-2.5
		v-21c0-1.381,1.119-2.5,2.5-2.5h32c1.381,0,2.5,1.119,2.5,2.5v21c0,1.381-1.119,2.5-2.5,2.5H23.535l-6.768,6.768
		C16.279,433.366,15.64,433.61,15,433.61z"/>
</g>
<g>
	<g>
		<path style="fill-rule:evenodd;clip-rule:evenodd;fill:#4DB592;" d="M428.726,312.636c-6.889-5.729-17.131-5.37-23.591,1.09
			c-6.847,6.847-6.847,17.949,0,24.796c6.847,6.848,17.949,6.848,24.796,0c6.167-6.167,6.76-15.775,1.819-22.628l-0.048,0.045
			L428.726,312.636z M425.423,334.014c-4.357,4.357-11.422,4.357-15.779,0c-4.358-4.358-4.358-11.422,0-15.779
			c4.357-4.358,11.422-4.358,15.779,0C429.781,322.591,429.781,329.656,425.423,334.014z M425.326,300l0,6.376h7.447l-5.096,5.096
			l1.049,1.164c0.413,0.344,0.818,0.702,1.206,1.09c0.68,0.68,1.274,1.412,1.819,2.168l4.734-4.437v6.077h6.375V300H425.326z"/>
	</g>
</g>
<g>
	<g>
		<path style="fill-rule:evenodd;clip-rule:evenodd;fill:#EB6877;" d="M525.775,334.798h-6.225v-3.425
			c7.103-1.442,12.45-7.721,12.45-15.25c0-8.595-6.968-15.563-15.562-15.563c-8.595,0-15.563,6.968-15.563,15.563
			c0,7.529,5.347,13.808,12.45,15.25v3.425H507.1c-1.832,0-3.113,1.475-3.113,3.112c0,1.908,1.339,3.112,3.112,3.112h6.225v8.56
			c0,0.43,0.348,0.778,0.778,0.778h4.669c0.43,0,0.778-0.348,0.778-0.778v-8.56h6.225c2.034,0,3.113-0.951,3.113-3.112
			C528.887,336.054,527.555,334.798,525.775,334.798z M507.1,316.123c0-5.157,4.181-9.338,9.338-9.338s9.337,4.181,9.337,9.338
			c0,5.157-4.18,9.337-9.337,9.337S507.1,321.28,507.1,316.123z"/>
	</g>
</g>
<g>
	<path style="fill:#FF475C;" d="M122,448c-12.131,0-22-9.869-22-22c0-6.984,3.207-13.398,8.799-17.6
		c0.883-0.663,2.137-0.485,2.801,0.397c0.662,0.883,0.484,2.137-0.398,2.8C106.625,415.036,104,420.286,104,426
		c0,9.925,8.074,18,18,18s18-8.075,18-18c0-5.708-2.621-10.954-7.189-14.393c-0.883-0.664-1.059-1.918-0.395-2.8
		c0.662-0.882,1.916-1.062,2.801-0.396c5.582,4.2,8.783,10.611,8.783,17.588C144,438.131,134.131,448,122,448z"/>
</g>
<g>
	<path style="fill:#FF475C;" d="M122,420c-1.105,0-2-0.896-2-2v-16c0-1.104,0.895-2,2-2s2,0.896,2,2v16
		C124,419.104,123.105,420,122,420z"/>
</g>
<rect x="200" y="400" style="fill:#414141;" width="60" height="6"/>
<rect x="200" y="421" style="fill:#414141;" width="60" height="6"/>
<rect x="200" y="442" style="fill:#414141;" width="60" height="6"/>
<g>
	<path style="fill:#B6B3AD;" d="M15.001,509v12H3v-12H15.001 M18.001,506H0v18h18V506L18.001,506z"/>
</g>
<g>
	<path style="fill:#B6B3AD;" d="M39.001,509l0,12h-12l0-12H39.001 M42.001,506h-18l0,18h18L42.001,506L42.001,506z"/>
</g>
<g>
	<path style="fill:#B6B3AD;" d="M63.001,509v12h-12v-12H63.001 M66.001,506h-18v18h18V506L66.001,506z"/>
</g>
<g>
	<path style="fill:#B6B3AD;" d="M15.001,533l0,12H3l0-12H15.001 M18.001,530H0l0,18h18L18.001,530L18.001,530z"/>
</g>
<g>
	<path style="fill:#B6B3AD;" d="M39.001,533v12h-12v-12H39.001 M42.001,530h-18v18h18V530L42.001,530z"/>
</g>
<g>
	<path style="fill:#B6B3AD;" d="M63.001,533v12h-12v-12H63.001 M66.001,530h-18v18h18V530L66.001,530z"/>
</g>
<g>
	<path style="fill:#B6B3AD;" d="M15.001,557v12H3v-12H15.001 M18.001,554H0v18h18V554L18.001,554z"/>
</g>
<g>
	<path style="fill:#B6B3AD;" d="M39.001,557v12h-12v-12H39.001 M42.001,554h-18v18h18V554L42.001,554z"/>
</g>
<g>
	<path style="fill:#B6B3AD;" d="M63.001,557v12h-12v-12H63.001 M66.001,554h-18v18h18V554L66.001,554z"/>
</g>
<g>
	<path style="fill:#B6B3AD;" d="M160,532h-9v-3v-3h-3h-16.533c0.865-1.76,1.533-3.785,1.533-6c0-9.954-7.954-15-14.969-15
		c-7.203,0-15.031,5.047-15.031,15c0,6.91,5.596,12,5.596,12c-6.533,2.109-8.596,7.641-8.596,12c0,6,0,24,0,24h14.709H115v0.001V571
		h3h42h3v-2.999v-33v-3H160z M124.03,532H118h-3v3v30h-0.291H103v-21c0-2.485,1.125-6.985,7.313-9.541l2.484-1.1l-2.183-3.579
		c-0.046-0.042-4.614-4.349-4.614-9.78c0-8.804,7.195-12,12.031-12c5.802,0,11.969,4.206,11.969,12c0,2.253-1.21,5.003-2.109,6.75
		C126.25,529.938,124.03,532,124.03,532 M160,568.001h-42v-33h9h3.001v-6H148v6h12V568.001z"/>
	<path style="fill:#B6B3AD;" d="M139,538c-6.617,0-12,5.383-12,12c0,6.617,5.383,12,12,12c6.617,0,12-5.383,12-12
		C151,543.383,145.617,538,139,538z M139,559c-4.971,0-9-4.029-9-9s4.029-9,9-9s9,4.029,9,9S143.971,559,139,559z"/>
</g>
<g>
	<g>
		<path style="fill:#B6B3AD;" d="M212,536h36v-3h-36V536z M212,548h36v-3h-36V548z M212,560h24l0-3h-24L212,560z M239,509
			c0-6.089-3.229-9-9-9c-5.958,0-9,2.855-9,9h-21l0,63h60v-63H239z M224,512v-3c0-3.308,2.692-6,6-6c3.309,0,6,2.692,6,6v3
			c0,0,6.983,1.641,8.671,9h-29.344C217.343,513.547,224,512,224,512z M257.001,569h-54l0-57h15c0,0-6,3-6,12h36
			c-0.047-9.375-6.001-12-6.001-12h15.001V569z"/>
	</g>
</g>
<path style="fill:#B6B3AD;" d="M368.983,504.561c0.009-0.218-0.022-0.431-0.106-0.634c-0.011-0.027-0.012-0.055-0.025-0.081
	c-0.083-0.172-0.195-0.333-0.346-0.467c-0.035-0.031-0.079-0.043-0.116-0.07c-0.021-0.016-0.028-0.043-0.049-0.057
	c-0.03-0.02-0.069-0.015-0.1-0.033c-0.189-0.107-0.387-0.176-0.597-0.195c-0.032-0.003-0.059-0.016-0.091-0.016
	c-0.238-0.007-0.468,0.053-0.687,0.158c-0.024,0.011-0.052,0.005-0.075,0.017l-66,36c-0.524,0.286-0.829,0.855-0.776,1.45
	c0.053,0.594,0.454,1.101,1.02,1.29l17.25,5.75l5.782,20.24c0.164,0.574,0.655,0.997,1.247,1.074
	c0.066,0.009,0.132,0.013,0.196,0.013c0.3,0,0.574-0.11,0.818-0.273l0.014,0.021l17.39-11.593l17.304,5.768
	c0.431,0.141,0.904,0.084,1.286-0.162s0.633-0.652,0.68-1.104l6-57C369.003,504.623,368.982,504.594,368.983,504.561z
	 M305.253,540.167l51.025-27.832l-37.109,32.47L305.253,540.167z M321.212,547.002L359.5,513.5l-26.228,38.15
	c-0.008,0.011-0.007,0.025-0.014,0.036c-0.01,0.016-0.026,0.025-0.036,0.041l-7.222,12.036L321.212,547.002z M330.226,562.552
	l4.949-8.249l4.95,1.65L330.226,562.552z M360.212,559.487l-23.338-7.779l28.523-41.489L360.212,559.487z"/>
<g>
	<path style="fill:#414141;" d="M111.027,644.325C110.722,644.137,110.384,644,110,644c-1.105,0-2,0.895-2,2
		c0,0.14,0.052,0.263,0.08,0.395c0.189,0.908,0.956,1.605,1.92,1.605c1.105,0,2-0.895,2-2
		C112,645.279,111.598,644.677,111.027,644.325z"/>
	<path style="fill:#414141;" d="M12,600H8v10H2c-0.183,0-0.348,0.058-0.516,0.104C0.636,610.336,0,611.078,0,612v2h8v12H0v4h8v12
		c0,1.105-0.895,2-2,2l0,0v4l0,0c2.5,0,6-1.375,6-6v-12h6v-4h-6v-12h6v-4h-6V600z"/>
	<path style="fill:#414141;" d="M46,606v-2c0-1.105-0.895-2-2-2H24v4h20H46z"/>
	<path style="fill:#414141;" d="M24,610c-1.105,0-2,0.895-2,2v34c0,1.105,0.895,2,2,2h16c0.983,0,1.913-0.202,2.782-0.526
		c0.427-0.159,0.829-0.358,1.218-0.584c1.2-0.699,2.192-1.69,2.891-2.891c0.687-1.181,1.109-2.535,1.109-4v-30H24z M44,640
		c0,2.209-1.791,4-4,4H26v-14h18V640z M26,626v-12h18v12H26z"/>
	<path style="fill:#414141;" d="M86.159,610H86v-8c0-1.105-0.895-2-2-2h-0.161H82v2v8H70v-4h8v-4h-8h-4H56c-1.105,0-2,0.895-2,2v2
		h12v4H54v4h12v8.889V626H54v4h12l0,12c0,1.105-0.896,2-2,2h0v4l0,0c3.688,0,6-2.5,6-6v-12h8v-4h-8v-12h12l0.004,0.002
		c0,0.042-0.004,0.082-0.004,0.123c0,7.085,1.288,13.657,3.484,19.095c-2.554,2.573-5.39,4.86-8.451,6.832l2.162,3.364
		c2.903-1.87,5.614-4.01,8.1-6.386c1.891,3.481,4.193,6.306,6.794,8.206c1.244,0.909,2.551,1.616,3.91,2.084
		c0.236,0.081,1.963,0.485,2.598,0.56c0.807-0.257,1.402-0.987,1.402-1.879V636c0-1.105-0.895-2-2-2h-2v9.017
		c-0.416-0.201-0.825-0.427-1.227-0.687c-2.57-1.668-4.837-4.524-6.624-8.225c3.224-3.583,5.968-7.603,8.149-11.955l-3.577-1.789
		c-1.722,3.438-3.821,6.653-6.256,9.582c-1.371-4.083-2.227-8.821-2.409-13.915C86.031,615.354,86,614.685,86,614v0h16v-4H86.159z"
		/>
	<path style="fill:#414141;" d="M99.355,606H100v-2c0-0.339-0.106-0.644-0.255-0.924C99.408,602.444,98.765,602,98,602h-8v4h8
		H99.355z"/>
</g>
<g>
	<path style="fill:#D8D6D0;" d="M311.027,644.325C310.722,644.137,310.384,644,310,644c-1.105,0-2,0.895-2,2
		c0,0.14,0.052,0.263,0.08,0.395c0.189,0.908,0.956,1.605,1.92,1.605c1.105,0,2-0.895,2-2
		C312,645.279,311.598,644.677,311.027,644.325z"/>
	<path style="fill:#D8D6D0;" d="M212,600h-4v10h-6c-0.183,0-0.348,0.058-0.516,0.104C200.636,610.336,200,611.078,200,612v2h8v12h-8
		v4h8v12c0,1.105-0.895,2-2,2l0,0v4l0,0c2.5,0,6-1.375,6-6v-12h6v-4h-6v-12h6v-4h-6V600z"/>
	<path style="fill:#D8D6D0;" d="M246,606v-2c0-1.105-0.895-2-2-2h-20v4h20H246z"/>
	<path style="fill:#D8D6D0;" d="M224,610c-1.105,0-2,0.895-2,2v34c0,1.105,0.895,2,2,2h16c0.983,0,1.913-0.202,2.782-0.526
		c0.427-0.159,0.829-0.358,1.218-0.584c1.2-0.699,2.192-1.69,2.891-2.891c0.687-1.181,1.109-2.535,1.109-4v-30H224z M244,640
		c0,2.209-1.791,4-4,4h-14v-14h18V640z M226,626v-12h18v12H226z"/>
	<path style="fill:#D8D6D0;" d="M286.159,610H286v-8c0-1.105-0.895-2-2-2h-0.161H282v2v8h-12v-4h8v-4h-8h-4h-10
		c-1.105,0-2,0.895-2,2v2h12v4h-12v4h12v8.889V626h-12v4h12l0,12c0,1.105-0.896,2-2,2h0v4l0,0c3.688,0,6-2.5,6-6v-12h8v-4h-8v-12h12
		l0.004,0.002c0,0.042-0.004,0.082-0.004,0.123c0,7.085,1.288,13.657,3.484,19.095c-2.554,2.573-5.39,4.86-8.451,6.832l2.162,3.364
		c2.903-1.87,5.614-4.01,8.1-6.386c1.891,3.481,4.193,6.306,6.794,8.206c1.244,0.909,2.551,1.616,3.91,2.084
		c0.236,0.081,1.963,0.485,2.598,0.56c0.807-0.257,1.402-0.987,1.402-1.879V636c0-1.105-0.895-2-2-2h-2v9.017
		c-0.416-0.201-0.825-0.427-1.227-0.687c-2.57-1.668-4.837-4.524-6.624-8.225c3.224-3.583,5.968-7.603,8.149-11.955l-3.577-1.789
		c-1.722,3.438-3.821,6.653-6.256,9.582c-1.371-4.083-2.227-8.821-2.409-13.915C286.031,615.354,286,614.685,286,614v0h16v-4
		H286.159z"/>
	<path style="fill:#D8D6D0;" d="M299.355,606H300v-2c0-0.339-0.106-0.644-0.255-0.924C299.408,602.444,298.765,602,298,602h-8v4h8
		H299.355z"/>
</g>
</svg>
